<?xml version="1.0" encoding="UTF-8"?>
<svg id="_レイヤー_1" data-name="レイヤー 1" xmlns="http://www.w3.org/2000/svg" viewBox="0 0 489.41 216.29">
  <g>
    <path d="M4.91,68.15c-.44-.93,0-2.02.97-2.43.98-.42,2.13,0,2.57.92,3.07,6.44,7.29,12.09,11.17,17.29,5.8,7.78,10.89,14.61,10.89,22.1,0,1.02-.87,1.84-1.95,1.84s-1.94-.82-1.94-1.84c0-6.33-4.76-12.71-10.18-19.98-3.98-5.34-8.3-11.13-11.53-17.89h0ZM50,0c1.07,0,1.95.83,1.95,1.84s-.87,1.84-1.95,1.84c-12.73,0-24.26,4.88-32.6,12.78-8.34,7.9-13.5,18.81-13.5,30.86,0,.68,0,1.23.02,1.67.02.49.05,1.03.1,1.64.08,1.01-.73,1.89-1.8,1.96-1.07.07-2-.69-2.07-1.71-.04-.52-.07-1.11-.1-1.77-.03-.7-.04-1.31-.04-1.8,0-13.07,5.6-24.9,14.64-33.46C23.69,5.3,36.19,0,50,0h0ZM93.71,70c-.51.89-1.69,1.23-2.64.74-.95-.48-1.3-1.6-.78-2.5,1.7-2.97,3.16-6.13,4.19-9.57,1.03-3.44,1.63-7.19,1.63-11.35,0-9.89-3.47-19.01-9.32-26.32-5.99-7.49-14.48-13.09-24.29-15.7-1.03-.27-1.63-1.29-1.34-2.27.29-.98,1.36-1.55,2.39-1.27,10.64,2.83,19.85,8.9,26.34,17.03,6.35,7.94,10.11,17.83,10.11,28.54,0,4.5-.66,8.58-1.79,12.34-1.12,3.75-2.69,7.16-4.51,10.33h0ZM73.21,106.03c0,1.02-.87,1.84-1.95,1.84s-1.94-.82-1.94-1.84c0-9.66,5.77-17.06,12.04-25.11h0s.33-.43.33-.43c.63-.82,1.85-1,2.72-.4.86.6,1.05,1.75.42,2.57l-.33.43h0s0,0,0,0c-5.87,7.53-11.27,14.46-11.27,22.94h0Z" fill="#333233" fill-rule="evenodd" stroke-width="0"/>
    <path d="M24.67,107.87c-1.07,0-1.95-.82-1.95-1.84s.87-1.84,1.95-1.84h50.65c1.08,0,1.94.83,1.94,1.84s-.87,1.84-1.94,1.84H24.67Z" fill="#333233" fill-rule="evenodd" stroke-width="0"/>
    <path d="M29.54,118.94c-1.07,0-1.95-.83-1.95-1.84s.87-1.84,1.95-1.84h40.91c1.08,0,1.95.83,1.95,1.84s-.87,1.84-1.95,1.84H29.54Z" fill="#333233" fill-rule="evenodd" stroke-width="0"/>
    <path d="M34.41,130c-1.08,0-1.95-.83-1.95-1.84s.87-1.84,1.95-1.84h31.17c1.07,0,1.94.83,1.94,1.84s-.87,1.84-1.94,1.84h-31.17Z" fill="#333233" fill-rule="evenodd" stroke-width="0"/>
    <path d="M38.47,63v-10.87c0-5.11-1.53-7.86-3.49-8.93-.87-.48-1.86-.62-2.83-.48-1.02.14-2.02.58-2.86,1.25-1.72,1.37-2.74,3.71-1.94,6.44,1.31,4.44,4.52,8.17,8.41,10.91.87.61,1.78,1.18,2.7,1.68h0ZM42.37,117.09c0,1.02-.87,1.84-1.95,1.84s-1.95-.83-1.95-1.84v-49.94c-1.73-.8-3.43-1.77-5.02-2.89-4.53-3.18-8.28-7.58-9.84-12.88-1.27-4.29.41-8.01,3.18-10.23,1.39-1.11,3.07-1.85,4.81-2.09,1.79-.24,3.63.03,5.31.94,3.07,1.67,5.45,5.47,5.45,12.11v12.65c2.63.97,5.27,1.49,7.63,1.49,1.07,0,1.95.83,1.95,1.84s-.87,1.84-1.95,1.84c-2.39,0-5-.44-7.63-1.28v48.42Z" fill="#333233" fill-rule="evenodd" stroke-width="0"/>
    <path d="M63.69,63c.93-.51,1.83-1.07,2.7-1.68,3.89-2.73,7.1-6.47,8.41-10.91.81-2.73-.22-5.07-1.94-6.44-.84-.67-1.84-1.11-2.86-1.25-.97-.13-1.96,0-2.83.48-1.96,1.07-3.49,3.82-3.49,8.93v10.87h0ZM59.8,68.67c-2.63.83-5.25,1.28-7.63,1.28-1.07,0-1.95-.83-1.95-1.84s.87-1.84,1.95-1.84c2.36,0,5-.52,7.63-1.49v-12.65c0-6.64,2.39-10.44,5.45-12.11,1.68-.91,3.52-1.19,5.31-.94,1.73.24,3.41.97,4.81,2.09,2.78,2.21,4.45,5.93,3.18,10.23-1.56,5.3-5.32,9.7-9.84,12.88-1.59,1.12-3.29,2.09-5.02,2.89v49.94c0,1.02-.87,1.84-1.95,1.84s-1.95-.83-1.95-1.84v-48.42Z" fill="#333233" fill-rule="evenodd" stroke-width="0"/>
  </g>
  <g>
    <text transform="translate(105.66 57.62) scale(1.05 1)" font-family="YuMin-Demibold-83pv-RKSJ-H, YuMincho" font-size="48" font-weight="300"><tspan x="0" y="0">山下貴也</tspan></text>
    <text transform="translate(109.21 108.04)" font-family="YuMin-Demibold-83pv-RKSJ-H, YuMincho" font-size="34" font-weight="300"><tspan x="0" y="0">税理士公認会計士事務所</tspan></text>
  </g>
</svg>